<svg width="32" height="32" viewBox="0 0 32 32" fill="none" xmlns="http://www.w3.org/2000/svg">
<path d="M2.42789 19C2.26656 19 2.13456 18.9487 2.03189 18.846C1.92922 18.7433 1.87789 18.6113 1.87789 18.45V4.15C1.87789 3.98867 1.92922 3.85667 2.03189 3.754C2.13456 3.65133 2.26656 3.6 2.42789 3.6H5.33189C5.47856 3.6 5.60322 3.65133 5.70589 3.754C5.82322 3.85667 5.88189 3.98867 5.88189 4.15V15.678H12.5259C12.6872 15.678 12.8192 15.7367 12.9219 15.854C13.0392 15.9567 13.0979 16.0887 13.0979 16.25V18.45C13.0979 18.6113 13.0392 18.7433 12.9219 18.846C12.8192 18.9487 12.6872 19 12.5259 19H2.42789ZM15.5548 19C15.4082 19 15.2762 18.9487 15.1588 18.846C15.0562 18.7433 15.0048 18.6113 15.0048 18.45V4.15C15.0048 3.98867 15.0562 3.85667 15.1588 3.754C15.2762 3.65133 15.4082 3.6 15.5548 3.6H17.9308C18.1655 3.6 18.3415 3.666 18.4588 3.798C18.5908 3.91533 18.6715 4.01067 18.7008 4.084L22.5728 11.036L26.4448 4.084C26.4888 4.01067 26.5622 3.91533 26.6648 3.798C26.7822 3.666 26.9655 3.6 27.2148 3.6H29.5688C29.7302 3.6 29.8622 3.65133 29.9648 3.754C30.0822 3.85667 30.1408 3.98867 30.1408 4.15V18.45C30.1408 18.6113 30.0822 18.7433 29.9648 18.846C29.8622 18.9487 29.7302 19 29.5688 19H26.9508C26.7895 19 26.6502 18.9487 26.5328 18.846C26.4302 18.7433 26.3788 18.6113 26.3788 18.45V10.2L23.8928 14.798C23.8342 14.93 23.7462 15.0473 23.6288 15.15C23.5115 15.2527 23.3502 15.304 23.1448 15.304H22.0008C21.7955 15.304 21.6342 15.2527 21.5168 15.15C21.3995 15.0473 21.3042 14.93 21.2308 14.798L18.7448 10.2V18.45C18.7448 18.6113 18.6935 18.7433 18.5908 18.846C18.4882 18.9487 18.3562 19 18.1948 19H15.5548Z" fill="#DCA006"/>
<path d="M4.58161 28.11C4.10495 28.11 3.69795 28.0587 3.36061 27.956C3.03061 27.846 2.75928 27.714 2.54661 27.56C2.34128 27.406 2.18728 27.2483 2.08461 27.087C1.98195 26.9183 1.92695 26.7753 1.91961 26.658C1.91228 26.5773 1.93795 26.5113 1.99661 26.46C2.05528 26.4013 2.11761 26.372 2.18361 26.372H3.43761C3.45961 26.372 3.47795 26.3757 3.49261 26.383C3.50728 26.3903 3.52928 26.405 3.55861 26.427C3.65395 26.4783 3.74928 26.5443 3.84461 26.625C3.93995 26.6983 4.04995 26.7643 4.17461 26.823C4.29928 26.8817 4.44961 26.911 4.62561 26.911C4.83095 26.911 5.00328 26.8707 5.14261 26.79C5.28195 26.7093 5.35161 26.5883 5.35161 26.427C5.35161 26.3097 5.31861 26.2143 5.25261 26.141C5.18661 26.0603 5.05095 25.9833 4.84561 25.91C4.64761 25.8367 4.34695 25.7633 3.94361 25.69C3.56228 25.602 3.22861 25.4883 2.94261 25.349C2.65661 25.2023 2.43661 25.0153 2.28261 24.788C2.12861 24.5533 2.05161 24.271 2.05161 23.941C2.05161 23.6477 2.14695 23.3653 2.33761 23.094C2.52828 22.8227 2.80695 22.6027 3.17361 22.434C3.54028 22.258 3.99128 22.17 4.52661 22.17C4.95195 22.17 5.31861 22.2213 5.62661 22.324C5.94195 22.4193 6.20595 22.544 6.41861 22.698C6.63861 22.852 6.80361 23.0097 6.91361 23.171C7.02361 23.3323 7.08228 23.479 7.08961 23.611C7.09695 23.6843 7.07495 23.7503 7.02361 23.809C6.97228 23.8603 6.91361 23.886 6.84761 23.886H5.70361C5.67428 23.886 5.64495 23.8823 5.61561 23.875C5.58628 23.8603 5.56061 23.8457 5.53861 23.831C5.45061 23.787 5.36261 23.7283 5.27461 23.655C5.18661 23.5817 5.08395 23.5157 4.96661 23.457C4.84928 23.3983 4.70261 23.369 4.52661 23.369C4.32861 23.369 4.17461 23.413 4.06461 23.501C3.95461 23.589 3.89961 23.7027 3.89961 23.842C3.89961 23.9373 3.92895 24.0253 3.98761 24.106C4.05361 24.1867 4.18195 24.26 4.37261 24.326C4.57061 24.392 4.87495 24.4653 5.28561 24.546C5.79161 24.6267 6.19495 24.7587 6.49561 24.942C6.79628 25.118 7.00895 25.327 7.13361 25.569C7.25828 25.8037 7.32061 26.053 7.32061 26.317C7.32061 26.669 7.21428 26.9807 7.00161 27.252C6.79628 27.5233 6.48828 27.736 6.07761 27.89C5.66695 28.0367 5.16828 28.11 4.58161 28.11ZM11.2015 28C10.7321 28 10.3251 27.9267 9.98047 27.78C9.64313 27.626 9.3828 27.3913 9.19946 27.076C9.01613 26.7533 8.92446 26.339 8.92446 25.833V23.721H8.06646C7.9858 23.721 7.91613 23.6953 7.85746 23.644C7.80613 23.5927 7.78046 23.5267 7.78046 23.446V22.555C7.78046 22.4743 7.80613 22.4083 7.85746 22.357C7.91613 22.3057 7.9858 22.28 8.06646 22.28H8.92446V20.465C8.92446 20.3843 8.95013 20.3183 9.00146 20.267C9.06013 20.2157 9.12613 20.19 9.19946 20.19H10.4755C10.5561 20.19 10.6221 20.2157 10.6735 20.267C10.7248 20.3183 10.7505 20.3843 10.7505 20.465V22.28H12.1255C12.2061 22.28 12.2721 22.3057 12.3235 22.357C12.3748 22.4083 12.4005 22.4743 12.4005 22.555V23.446C12.4005 23.5267 12.3748 23.5927 12.3235 23.644C12.2721 23.6953 12.2061 23.721 12.1255 23.721H10.7505V25.679C10.7505 25.9283 10.7981 26.1263 10.8935 26.273C10.9888 26.4197 11.1501 26.493 11.3775 26.493H12.2245C12.3051 26.493 12.3711 26.5187 12.4225 26.57C12.4738 26.6213 12.4995 26.6873 12.4995 26.768V27.725C12.4995 27.8057 12.4738 27.8717 12.4225 27.923C12.3711 27.9743 12.3051 28 12.2245 28H11.2015ZM15.1262 28.11C14.7302 28.11 14.3746 28.0367 14.0592 27.89C13.7512 27.736 13.5056 27.5307 13.3222 27.274C13.1389 27.0173 13.0472 26.7277 13.0472 26.405C13.0472 25.8843 13.2599 25.4737 13.6852 25.173C14.1106 24.865 14.6752 24.656 15.3792 24.546L16.7542 24.337V24.183C16.7542 23.919 16.6992 23.7173 16.5892 23.578C16.4792 23.4387 16.2776 23.369 15.9842 23.369C15.7789 23.369 15.6102 23.4093 15.4782 23.49C15.3536 23.5707 15.2546 23.6807 15.1812 23.82C15.1152 23.9153 15.0236 23.963 14.9062 23.963H13.6742C13.5936 23.963 13.5312 23.941 13.4872 23.897C13.4432 23.8457 13.4249 23.787 13.4322 23.721C13.4322 23.589 13.4799 23.4387 13.5752 23.27C13.6779 23.094 13.8319 22.9217 14.0372 22.753C14.2426 22.5843 14.5066 22.445 14.8292 22.335C15.1519 22.225 15.5406 22.17 15.9952 22.17C16.4719 22.17 16.8789 22.225 17.2162 22.335C17.5536 22.445 17.8249 22.599 18.0302 22.797C18.2429 22.995 18.4006 23.2297 18.5032 23.501C18.6059 23.765 18.6572 24.0583 18.6572 24.381V27.725C18.6572 27.8057 18.6279 27.8717 18.5692 27.923C18.5179 27.9743 18.4556 28 18.3822 28H17.1062C17.0256 28 16.9596 27.9743 16.9082 27.923C16.8569 27.8717 16.8312 27.8057 16.8312 27.725V27.34C16.7359 27.4793 16.6076 27.6077 16.4462 27.725C16.2849 27.8423 16.0942 27.934 15.8742 28C15.6616 28.0733 15.4122 28.11 15.1262 28.11ZM15.6432 26.856C15.8559 26.856 16.0466 26.812 16.2152 26.724C16.3912 26.6287 16.5269 26.4857 16.6222 26.295C16.7249 26.097 16.7762 25.8513 16.7762 25.558V25.404L15.8412 25.569C15.4966 25.6277 15.2436 25.7193 15.0822 25.844C14.9282 25.9613 14.8512 26.1007 14.8512 26.262C14.8512 26.3867 14.8879 26.493 14.9612 26.581C15.0346 26.669 15.1299 26.7387 15.2472 26.79C15.3646 26.834 15.4966 26.856 15.6432 26.856ZM22.7815 28C22.3122 28 21.9052 27.9267 21.5605 27.78C21.2232 27.626 20.9629 27.3913 20.7795 27.076C20.5962 26.7533 20.5045 26.339 20.5045 25.833V23.721H19.6465C19.5659 23.721 19.4962 23.6953 19.4375 23.644C19.3862 23.5927 19.3605 23.5267 19.3605 23.446V22.555C19.3605 22.4743 19.3862 22.4083 19.4375 22.357C19.4962 22.3057 19.5659 22.28 19.6465 22.28H20.5045V20.465C20.5045 20.3843 20.5302 20.3183 20.5815 20.267C20.6402 20.2157 20.7062 20.19 20.7795 20.19H22.0555C22.1362 20.19 22.2022 20.2157 22.2535 20.267C22.3049 20.3183 22.3305 20.3843 22.3305 20.465V22.28H23.7055C23.7862 22.28 23.8522 22.3057 23.9035 22.357C23.9549 22.4083 23.9805 22.4743 23.9805 22.555V23.446C23.9805 23.5267 23.9549 23.5927 23.9035 23.644C23.8522 23.6953 23.7862 23.721 23.7055 23.721H22.3305V25.679C22.3305 25.9283 22.3782 26.1263 22.4735 26.273C22.5689 26.4197 22.7302 26.493 22.9575 26.493H23.8045C23.8852 26.493 23.9512 26.5187 24.0025 26.57C24.0539 26.6213 24.0795 26.6873 24.0795 26.768V27.725C24.0795 27.8057 24.0539 27.8717 24.0025 27.923C23.9512 27.9743 23.8852 28 23.8045 28H22.7815ZM27.3443 28.11C26.8676 28.11 26.4606 28.0587 26.1233 27.956C25.7933 27.846 25.522 27.714 25.3093 27.56C25.104 27.406 24.95 27.2483 24.8473 27.087C24.7446 26.9183 24.6896 26.7753 24.6823 26.658C24.675 26.5773 24.7006 26.5113 24.7593 26.46C24.818 26.4013 24.8803 26.372 24.9463 26.372H26.2003C26.2223 26.372 26.2406 26.3757 26.2553 26.383C26.27 26.3903 26.292 26.405 26.3213 26.427C26.4166 26.4783 26.512 26.5443 26.6073 26.625C26.7026 26.6983 26.8126 26.7643 26.9373 26.823C27.062 26.8817 27.2123 26.911 27.3883 26.911C27.5936 26.911 27.766 26.8707 27.9053 26.79C28.0446 26.7093 28.1143 26.5883 28.1143 26.427C28.1143 26.3097 28.0813 26.2143 28.0153 26.141C27.9493 26.0603 27.8136 25.9833 27.6083 25.91C27.4103 25.8367 27.1096 25.7633 26.7063 25.69C26.325 25.602 25.9913 25.4883 25.7053 25.349C25.4193 25.2023 25.1993 25.0153 25.0453 24.788C24.8913 24.5533 24.8143 24.271 24.8143 23.941C24.8143 23.6477 24.9096 23.3653 25.1003 23.094C25.291 22.8227 25.5696 22.6027 25.9363 22.434C26.303 22.258 26.754 22.17 27.2893 22.17C27.7146 22.17 28.0813 22.2213 28.3893 22.324C28.7046 22.4193 28.9686 22.544 29.1813 22.698C29.4013 22.852 29.5663 23.0097 29.6763 23.171C29.7863 23.3323 29.845 23.479 29.8523 23.611C29.8596 23.6843 29.8376 23.7503 29.7863 23.809C29.735 23.8603 29.6763 23.886 29.6103 23.886H28.4663C28.437 23.886 28.4076 23.8823 28.3783 23.875C28.349 23.8603 28.3233 23.8457 28.3013 23.831C28.2133 23.787 28.1253 23.7283 28.0373 23.655C27.9493 23.5817 27.8466 23.5157 27.7293 23.457C27.612 23.3983 27.4653 23.369 27.2893 23.369C27.0913 23.369 26.9373 23.413 26.8273 23.501C26.7173 23.589 26.6623 23.7027 26.6623 23.842C26.6623 23.9373 26.6916 24.0253 26.7503 24.106C26.8163 24.1867 26.9446 24.26 27.1353 24.326C27.3333 24.392 27.6376 24.4653 28.0483 24.546C28.5543 24.6267 28.9576 24.7587 29.2583 24.942C29.559 25.118 29.7716 25.327 29.8963 25.569C30.021 25.8037 30.0833 26.053 30.0833 26.317C30.0833 26.669 29.977 26.9807 29.7643 27.252C29.559 27.5233 29.251 27.736 28.8403 27.89C28.4296 28.0367 27.931 28.11 27.3443 28.11Z" fill="#BC1515"/>
</svg>
